<?xml version="1.0" encoding="UTF-8" standalone="no"?>
<svg
   width="52"
   height="52"
   viewBox="0 0 52 52"
   fill="none"
   version="1.1"
   id="svg8"
   sodipodi:docname="icon.svg"
   inkscape:version="1.1.2 (0a00cf5339, 2022-02-04)"
   xmlns:inkscape="http://www.inkscape.org/namespaces/inkscape"
   xmlns:sodipodi="http://sodipodi.sourceforge.net/DTD/sodipodi-0.dtd"
   xmlns:xlink="http://www.w3.org/1999/xlink"
   xmlns="http://www.w3.org/2000/svg"
   xmlns:svg="http://www.w3.org/2000/svg">
  <defs
     id="defs12">
    <linearGradient
       inkscape:collect="always"
       xlink:href="#linearGradient4689"
       id="linearGradient1478"
       gradientUnits="userSpaceOnUse"
       gradientTransform="matrix(0.14323663,0,0,0.1446195,19.887667,20.410309)"
       x1="26.648937"
       y1="20.603781"
       x2="135.66525"
       y2="114.39767" />
    <linearGradient
       id="linearGradient4689">
      <stop
         style="stop-color:#5a9fd4;stop-opacity:1;"
         offset="0"
         id="stop4691" />
      <stop
         style="stop-color:#306998;stop-opacity:1;"
         offset="1"
         id="stop4693" />
    </linearGradient>
    <linearGradient
       inkscape:collect="always"
       xlink:href="#linearGradient4671"
       id="linearGradient1475"
       gradientUnits="userSpaceOnUse"
       gradientTransform="matrix(0.14323663,0,0,0.1446195,19.887667,20.410309)"
       x1="150.96111"
       y1="192.35176"
       x2="112.03144"
       y2="137.27299" />
    <linearGradient
       id="linearGradient4671">
      <stop
         style="stop-color:#ffd43b;stop-opacity:1;"
         offset="0"
         id="stop4673" />
      <stop
         style="stop-color:#ffe873;stop-opacity:1"
         offset="1"
         id="stop4675" />
    </linearGradient>
  </defs>
  <sodipodi:namedview
     id="namedview10"
     pagecolor="#ffffff"
     bordercolor="#666666"
     borderopacity="1.0"
     inkscape:pageshadow="2"
     inkscape:pageopacity="0.0"
     inkscape:pagecheckerboard="0"
     showgrid="false"
     inkscape:zoom="10.633798"
     inkscape:cx="38.227169"
     inkscape:cy="26.001998"
     inkscape:window-width="1846"
     inkscape:window-height="1016"
     inkscape:window-x="0"
     inkscape:window-y="0"
     inkscape:window-maximized="1"
     inkscape:current-layer="svg8" />
  <path
     d="M0 24.7213C0 13.0676 0 7.2407 3.62035 3.62035C7.2407 0 13.0676 0 24.7213 0H27.2787C38.9324 0 44.7593 0 48.3796 3.62035C52 7.2407 52 13.0676 52 24.7213V27.2787C52 38.9324 52 44.7593 48.3796 48.3796C44.7593 52 38.9324 52 27.2787 52H24.7213C13.0676 52 7.2407 52 3.62035 48.3796C0 44.7593 0 38.9324 0 27.2787V24.7213Z"
     fill="#00D9ED"
     id="path2" />
  <path
     d="M19.8189 8.5873C22.8355 6.84911 24.3438 5.98001 26 5.98001C27.6562 5.98001 29.1645 6.84911 32.181 8.5873L38.0189 11.9512C41.0355 13.6894 42.5438 14.5585 43.3719 15.99C44.2 17.4215 44.2 19.1597 44.2 22.6361V29.3639C44.2 32.8403 44.2 34.5785 43.3719 36.01C42.5438 37.4415 41.0355 38.3106 38.0189 40.0488L32.181 43.4127C29.1645 45.1509 27.6562 46.02 26 46.02C24.3438 46.02 22.8355 45.1509 19.8189 43.4127L13.981 40.0488C10.9645 38.3106 9.45619 37.4415 8.62809 36.01C7.79999 34.5785 7.79999 32.8403 7.79999 29.3639V22.6361C7.79999 19.1597 7.79999 17.4215 8.62809 15.99C9.45619 14.5585 10.9645 13.6894 13.981 11.9512L19.8189 8.5873Z"
     fill="#0077FF"
     id="path4" />
  <path
     d="M18.46 18.98C18.0292 18.98 17.68 19.3292 17.68 19.76V22.5141C17.68 22.9449 18.0292 23.2941 18.46 23.2941H23.063C23.4937 23.2941 23.843 23.6433 23.843 24.0741L23.843 34.84C23.843 35.2708 24.1922 35.62 24.623 35.62H27.377C27.8078 35.62 28.157 35.2708 28.157 34.84L28.157 24.0741C28.157 23.6433 28.5062 23.2941 28.937 23.2941H33.54C33.9708 23.2941 34.32 22.9449 34.32 22.5141V19.76C34.32 19.3292 33.9708 18.98 33.54 18.98H18.46Z"
     fill="white"
     id="path6" />
  <path
     style="fill:url(#linearGradient1478);fill-opacity:1;stroke-width:0.254624"
     d="m 37.688432,23.390255 c -1.167111,0.0054 -2.281674,0.104952 -3.262374,0.278493 -2.889025,0.510397 -3.413559,1.578698 -3.413559,3.548828 v 2.601943 h 6.827115 v 0.867315 h -6.827115 -2.562158 c -1.984151,0 -3.721527,1.192589 -4.264956,3.461299 -0.626841,2.60047 -0.654644,4.223205 0,6.938515 0.485295,2.021169 1.644247,3.461297 3.628396,3.461297 h 2.347318 v -3.119147 c 0,-2.253401 1.949696,-4.241087 4.264959,-4.241087 h 6.819156 c 1.898212,0 3.41356,-1.562926 3.41356,-3.469257 v -6.500878 c 0,-1.850187 -1.560842,-3.240037 -3.41356,-3.548828 -1.172795,-0.195225 -2.389673,-0.283915 -3.556782,-0.278493 z m -3.692053,2.092692 c 0.705194,0 1.281078,0.585293 1.281078,1.304951 0,0.717108 -0.575884,1.296993 -1.281078,1.296993 -0.707724,0 -1.281078,-0.579885 -1.281078,-1.296993 0,-0.719658 0.573354,-1.304951 1.281078,-1.304951 z"
     id="path1948" />
  <path
     style="fill:url(#linearGradient1475);fill-opacity:1;stroke-width:0.254624"
     d="m 45.510174,30.686834 v 3.03162 c 0,2.350374 -1.992665,4.328615 -4.26496,4.328615 h -6.819156 c -1.867883,0 -3.413559,1.598654 -3.413559,3.469256 v 6.500877 c 0,1.850189 1.608867,2.938447 3.413559,3.469257 2.16108,0.635444 4.233445,0.750284 6.819156,0 1.718755,-0.497635 3.41356,-1.499128 3.41356,-3.469257 v -2.601943 h -6.81916 v -0.867314 h 6.81916 3.413557 c 1.984151,0 2.723526,-1.383985 3.413556,-3.461297 0.712777,-2.138563 0.682448,-4.195135 0,-6.938515 -0.490351,-1.975233 -1.42688,-3.461299 -3.413556,-3.461299 z M 41.674893,47.14989 c 0.707724,0 1.28108,0.579883 1.28108,1.29699 0,0.719658 -0.573357,1.304951 -1.28108,1.304951 -0.705194,0 -1.281079,-0.585293 -1.281079,-1.304951 2e-6,-0.717107 0.575885,-1.29699 1.281079,-1.29699 z"
     id="path1950" />
</svg>
